# xmcd CD database file
#
# Track frame offsets:
#	150
#	16530
#	35536
#	53648
#	70820
#	85327
#	100714
#	125490
#	156651
#	174634
#	188878
#	208184
#	219351
#
# Disc length: 3152 seconds
#
# Revision: 0
# Processed by: cddbd v1.5.2PL0 Copyright (c) Steve Scherf et al.
# Submitted via: CDex 1.70beta2
#
DISCID=b00c4e0d
DTITLE=Nina Simone - Jazz Diva's CD5
DYEAR=2008
DGENRE=Blues
TTITLE0=My Baby just cares for me
TTITLE1=Porgy
TTITLE2=Mood indigo
TTITLE3=You'll never walk alone
TTITLE4=Don't smoke in bed
TTITLE5=Love Me or Leave Me
TTITLE6=Good bait
TTITLE7=Central Park blues
TTITLE8=For all we know
TTITLE9=He's got the whole world in his hands
TTITLE10=Little girl Blue
TTITLE11=He needs me
TTITLE12=Plain gold ring
EXTD=YEAR: 2008
EXTT0=
EXTT1=
EXTT2=
EXTT3=
EXTT4=
EXTT5=
EXTT6=
EXTT7=
EXTT8=
EXTT9=
EXTT10=
EXTT11=
EXTT12=
PLAYORDER=
